# xmcd CD database file
#
# Track frame offsets:
#	150
#	9853
#	21188
#	31615
#	41182
#	53094
#	64016
#	76451
#	89034
#	100244
#	110659
#	123516
#	136376
#	147586
#
# Disc length: 2139 seconds
#
# Revision: 0
# Processed by: cddbd v1.4PL0 Copyright (c) Steve Scherf et al.
# Submitted via: Feurio! 1.66 - http://www.feurio.com
#
DISCID=be08590e
DTITLE=Ernest Tubb - Merry Texas Christmas You All
DYEAR=2002
DGENRE=
TTITLE0=Merry Texas Christmas You All
TTITLE1=Blue Christmas Tree
TTITLE2=Rudolph The Red Nosed Reindeer
TTITLE3=Who's Gonna Be Your Santa Claus This Year
TTITLE4=Lonely Christmas Eve
TTITLE5=I'll Be Walking The Floor This Christmas
TTITLE6=Christmas Is Just Another Lonely Day
TTITLE7=White Christmas
TTITLE8=Christmas Island
TTITLE9=C-H-R-I-S-T-M-A-S
TTITLE10=We Need God For Christmas
TTITLE11=Blue Snowflakes
TTITLE12=I'm Trimming My Christmas Tree With Teardrops
TTITLE13=Blue Christmas
EXTD=
EXTT0=
EXTT1=
EXTT2=
EXTT3=
EXTT4=
EXTT5=
EXTT6=
EXTT7=
EXTT8=
EXTT9=
EXTT10=
EXTT11=
EXTT12=
EXTT13=
PLAYORDER=
